# xmcd
#
# Track frame offsets: 
#        150
#        10586
#        25416
#        36355
#        48550
#        64187
#        81689
#        94977
#        108244
#        125710
#
# Disc length: 1834 seconds
#
# Revision: 0
# Processed by: cddbd v1.5.2PL0 Copyright (c) Steve Scherf et al.
# Submitted via: ExactAudioCopy v1.3
#
DISCID=8a07280a
DTITLE=Trey Gilleland - Home Sweet Home
DYEAR=1900
DGENRE=Country
TTITLE0=Tennessee
TTITLE1=Home Sweet Home
TTITLE2=Honky Tonkin'
TTITLE3=Merle Went To Heaven
TTITLE4=Bertram Boys
TTITLE5=Todqay My World Fell Apart
TTITLE6=I Don't Care What You Say
TTITLE7=Papa
TTITLE8=Old School
TTITLE9=Liberty Hill
EXTD=
EXTT0=
EXTT1=
EXTT2=
EXTT3=
EXTT4=
EXTT5=
EXTT6=
EXTT7=
EXTT8=
EXTT9=
PLAYORDER=
